<?xml version="1.0" standalone="no"?>
<!DOCTYPE svg PUBLIC "-//W3C//DTD SVG 20010904//EN"
 "http://www.w3.org/TR/2001/REC-SVG-20010904/DTD/svg10.dtd">
<svg version="1.0" xmlns="http://www.w3.org/2000/svg"
 width="400.000000pt" height="400.000000pt" viewBox="0 0 400.000000 400.000000"
 preserveAspectRatio="xMidYMid meet">
<metadata>
Created by potrace 1.11, written by Peter Selinger 2001-2013
</metadata>
<g transform="translate(0.000000,400.000000) scale(0.100000,-0.100000)"
fill="#000000" stroke="none">
<path d="M1895 3989 c-484 -24 -924 -216 -1279 -559 -395 -382 -606 -877 -607
-1430 -1 -176 11 -285 47 -449 166 -745 763 -1341 1508 -1505 181 -40 287 -49
509 -43 230 6 365 29 567 96 302 102 542 252 776 485 291 291 463 611 551
1021 26 123 28 144 28 390 0 246 -2 267 -28 390 -89 416 -277 759 -573 1045
-408 394 -923 586 -1499 559z m350 -90 c281 -34 576 -142 811 -297 402 -265
699 -681 813 -1142 72 -291 70 -658 -4 -943 -133 -515 -482 -960 -945 -1210
-665 -358 -1466 -297 -2075 158 -99 74 -291 265 -368 366 -178 235 -314 544
-361 821 -36 210 -37 487 -1 683 51 286 179 579 360 820 77 103 267 293 370
370 407 305 895 435 1400 374z"/>
<path d="M1722 2674 c-12 -8 -34 -36 -48 -62 -14 -26 -36 -65 -49 -86 -13 -22
-21 -45 -18 -53 3 -7 0 -19 -5 -26 -12 -14 -33 -94 -38 -142 -1 -16 -7 -48
-13 -70 -14 -53 -22 -549 -11 -690 17 -217 51 -306 160 -415 90 -90 155 -124
234 -121 149 5 274 102 368 286 99 193 128 275 128 357 0 120 -5 198 -12 198
-4 0 -21 20 -37 44 l-31 44 51 46 c28 25 57 46 65 46 7 0 18 9 24 21 6 11 35
36 65 54 29 19 56 44 60 55 4 12 21 23 43 30 20 5 64 31 97 58 62 50 150 102
173 102 19 0 43 64 36 98 -5 26 -13 32 -51 42 -37 9 -49 8 -62 -3 -9 -7 -38
-26 -66 -42 -27 -15 -79 -54 -115 -85 -36 -31 -139 -112 -230 -179 -91 -67
-186 -139 -211 -159 -25 -20 -85 -68 -134 -107 -48 -38 -120 -97 -159 -129
-39 -33 -100 -73 -136 -89 -76 -35 -110 -63 -110 -90 0 -26 30 -87 43 -87 6 0
18 -7 27 -15 15 -13 20 -12 50 10 19 14 40 25 46 25 7 0 24 10 37 23 24 23 31
29 107 87 25 19 48 40 53 47 9 14 151 123 182 141 13 7 26 20 29 30 6 18 60
44 70 35 3 -3 1 -15 -5 -25 -8 -14 -8 -23 0 -31 25 -25 1 -222 -42 -339 -25
-69 -107 -197 -171 -267 -42 -45 -124 -91 -164 -91 -32 0 -116 44 -162 86 -38
34 -100 146 -114 206 -3 15 -12 134 -20 265 -14 221 -13 248 3 378 20 150 58
263 107 315 50 54 94 141 94 185 0 37 -5 48 -35 74 -40 34 -69 39 -103 15z"/>
<path d="M862 2264 c-28 -20 -28 -46 3 -112 53 -115 130 -432 185 -770 29
-174 86 -304 149 -336 35 -18 118 -6 159 22 31 23 52 78 37 101 -8 14 -44 14
-84 0 -27 -10 -35 -8 -53 7 -42 38 -74 146 -108 369 -34 218 -148 642 -184
685 -7 8 -16 23 -19 33 -8 22 -54 23 -85 1z"/>
</g>
</svg>
